<svg width="1440" height="64" viewBox="0 0 1440 64" fill="none" xmlns="http://www.w3.org/2000/svg">
<rect width="1440" height="64" fill="#FFC300"/>
<path d="M117.091 34.55C116.904 35.11 116.624 35.586 116.251 35.978C115.877 36.3607 115.439 36.65 114.935 36.846C114.431 37.042 113.875 37.14 113.269 37.14C112.382 37.14 111.612 36.9487 110.959 36.566C110.305 36.1833 109.801 35.6373 109.447 34.928C109.092 34.2187 108.915 33.3693 108.915 32.38C108.915 31.3907 109.092 30.5413 109.447 29.832C109.801 29.1227 110.305 28.5767 110.959 28.194C111.612 27.8113 112.377 27.62 113.255 27.62C113.861 27.62 114.407 27.704 114.893 27.872C115.387 28.04 115.807 28.292 116.153 28.628C116.498 28.964 116.764 29.384 116.951 29.888L115.537 30.518C115.35 29.9673 115.079 29.566 114.725 29.314C114.37 29.0527 113.908 28.922 113.339 28.922C112.769 28.922 112.27 29.0573 111.841 29.328C111.411 29.5987 111.075 29.9907 110.833 30.504C110.599 31.0173 110.483 31.6427 110.483 32.38C110.483 33.108 110.595 33.7333 110.819 34.256C111.043 34.7693 111.365 35.1613 111.785 35.432C112.205 35.7027 112.709 35.838 113.297 35.838C113.866 35.838 114.356 35.6933 114.767 35.404C115.187 35.1053 115.485 34.662 115.663 34.074L117.091 34.55ZM121.901 29.86C122.582 29.86 123.184 30.0047 123.707 30.294C124.229 30.5833 124.635 31.0033 124.925 31.554C125.223 32.0953 125.373 32.744 125.373 33.5C125.373 34.256 125.223 34.9093 124.925 35.46C124.635 36.0013 124.229 36.4167 123.707 36.706C123.184 36.9953 122.582 37.14 121.901 37.14C121.219 37.14 120.617 36.9953 120.095 36.706C119.572 36.4167 119.161 36.0013 118.863 35.46C118.564 34.9093 118.415 34.256 118.415 33.5C118.415 32.744 118.564 32.0953 118.863 31.554C119.161 31.0033 119.572 30.5833 120.095 30.294C120.617 30.0047 121.219 29.86 121.901 29.86ZM121.901 31.036C121.481 31.036 121.121 31.134 120.823 31.33C120.533 31.5167 120.309 31.792 120.151 32.156C119.992 32.52 119.913 32.968 119.913 33.5C119.913 34.0227 119.992 34.4707 120.151 34.844C120.309 35.208 120.533 35.488 120.823 35.684C121.121 35.8707 121.481 35.964 121.901 35.964C122.321 35.964 122.675 35.8707 122.965 35.684C123.254 35.488 123.478 35.208 123.637 34.844C123.795 34.4707 123.875 34.0227 123.875 33.5C123.875 32.968 123.795 32.52 123.637 32.156C123.478 31.792 123.254 31.5167 122.965 31.33C122.675 31.134 122.321 31.036 121.901 31.036ZM127.327 39.94V30H128.657L128.769 31.96L128.573 31.722C128.685 31.358 128.858 31.036 129.091 30.756C129.325 30.476 129.614 30.2567 129.959 30.098C130.314 29.9393 130.701 29.86 131.121 29.86C131.691 29.86 132.209 30.0047 132.675 30.294C133.142 30.5833 133.511 30.9987 133.781 31.54C134.052 32.072 134.187 32.7207 134.187 33.486C134.187 34.2513 134.047 34.9093 133.767 35.46C133.497 36.0013 133.123 36.4167 132.647 36.706C132.181 36.9953 131.658 37.14 131.079 37.14C130.482 37.14 129.973 36.986 129.553 36.678C129.133 36.3607 128.835 35.9593 128.657 35.474L128.825 35.236V39.94H127.327ZM130.757 35.922C131.364 35.922 131.835 35.7073 132.171 35.278C132.517 34.8487 132.689 34.256 132.689 33.5C132.689 32.744 132.521 32.1513 132.185 31.722C131.849 31.2833 131.383 31.064 130.785 31.064C130.393 31.064 130.048 31.1667 129.749 31.372C129.46 31.568 129.231 31.848 129.063 32.212C128.905 32.5667 128.825 32.996 128.825 33.5C128.825 33.9947 128.905 34.424 129.063 34.788C129.222 35.152 129.446 35.432 129.735 35.628C130.025 35.824 130.365 35.922 130.757 35.922ZM142.061 30L138.995 37.826C138.79 38.3673 138.566 38.7967 138.323 39.114C138.09 39.4313 137.819 39.66 137.511 39.8C137.203 39.94 136.844 40.01 136.433 40.01C136.097 40.01 135.784 39.9633 135.495 39.87C135.215 39.786 134.968 39.6693 134.753 39.52L135.117 38.358C135.294 38.5073 135.481 38.6193 135.677 38.694C135.882 38.7687 136.102 38.806 136.335 38.806C136.587 38.806 136.811 38.736 137.007 38.596C137.212 38.4653 137.394 38.1993 137.553 37.798L137.861 37.042L137.119 35.306L134.935 30H136.615L138.169 34.396L138.575 35.712L139.037 34.27L140.507 30H142.061ZM143.409 37V30H144.683L144.823 31.26C145.009 30.8027 145.285 30.4573 145.649 30.224C146.022 29.9813 146.479 29.86 147.021 29.86C147.161 29.86 147.301 29.874 147.441 29.902C147.581 29.9207 147.697 29.9533 147.791 30L147.581 31.316C147.478 31.2787 147.361 31.2507 147.231 31.232C147.109 31.204 146.941 31.19 146.727 31.19C146.437 31.19 146.153 31.2693 145.873 31.428C145.593 31.5773 145.359 31.806 145.173 32.114C144.995 32.422 144.907 32.814 144.907 33.29V37H143.409ZM150.032 28.824C149.705 28.824 149.453 28.7447 149.276 28.586C149.108 28.418 149.024 28.1847 149.024 27.886C149.024 27.5873 149.108 27.3587 149.276 27.2C149.453 27.0413 149.705 26.962 150.032 26.962C150.349 26.962 150.592 27.0413 150.76 27.2C150.937 27.3587 151.026 27.5873 151.026 27.886C151.026 28.1847 150.937 28.418 150.76 28.586C150.592 28.7447 150.349 28.824 150.032 28.824ZM150.774 30V37H149.276V30H150.774ZM159.347 28.53L159.585 29.706C159.557 29.706 159.529 29.706 159.501 29.706C159.473 29.6967 159.445 29.692 159.417 29.692C158.969 29.692 158.629 29.79 158.395 29.986C158.162 30.1727 158.045 30.448 158.045 30.812L157.317 30.476C157.317 30.1027 157.397 29.7713 157.555 29.482C157.714 29.1833 157.938 28.95 158.227 28.782C158.526 28.614 158.862 28.53 159.235 28.53C159.254 28.53 159.273 28.53 159.291 28.53C159.31 28.53 159.329 28.53 159.347 28.53ZM157.135 35.908C157.845 35.908 158.395 36.0667 158.787 36.384C159.179 36.692 159.375 37.1213 159.375 37.672C159.375 38.1573 159.221 38.5727 158.913 38.918C158.605 39.2727 158.185 39.5433 157.653 39.73C157.131 39.9167 156.529 40.01 155.847 40.01C154.699 40.01 153.85 39.8327 153.299 39.478C152.749 39.1233 152.473 38.68 152.473 38.148C152.473 37.7747 152.604 37.448 152.865 37.168C153.136 36.888 153.589 36.7293 154.223 36.692L154.139 36.916C153.747 36.832 153.43 36.6827 153.187 36.468C152.954 36.244 152.837 35.9313 152.837 35.53C152.837 35.1287 152.991 34.788 153.299 34.508C153.607 34.228 154.041 34.0647 154.601 34.018L155.385 34.396H155.217C154.788 34.4333 154.485 34.5313 154.307 34.69C154.13 34.8487 154.041 35.026 154.041 35.222C154.041 35.4553 154.125 35.628 154.293 35.74C154.471 35.852 154.718 35.908 155.035 35.908H157.135ZM155.847 38.89C156.361 38.89 156.781 38.8387 157.107 38.736C157.443 38.6427 157.691 38.5167 157.849 38.358C158.017 38.2087 158.101 38.0407 158.101 37.854C158.101 37.6393 158.013 37.4667 157.835 37.336C157.667 37.2053 157.359 37.14 156.911 37.14H154.657C154.396 37.14 154.177 37.2053 153.999 37.336C153.822 37.476 153.733 37.6627 153.733 37.896C153.733 38.204 153.92 38.4467 154.293 38.624C154.667 38.8013 155.185 38.89 155.847 38.89ZM155.791 29.86C156.407 29.86 156.939 29.958 157.387 30.154C157.845 30.35 158.195 30.6253 158.437 30.98C158.689 31.3347 158.815 31.75 158.815 32.226C158.815 32.702 158.689 33.1173 158.437 33.472C158.195 33.8267 157.845 34.102 157.387 34.298C156.939 34.494 156.407 34.592 155.791 34.592C154.821 34.592 154.074 34.3773 153.551 33.948C153.038 33.5093 152.781 32.9353 152.781 32.226C152.781 31.75 152.907 31.3347 153.159 30.98C153.411 30.6253 153.761 30.35 154.209 30.154C154.667 29.958 155.194 29.86 155.791 29.86ZM155.791 30.91C155.362 30.91 155.003 31.0313 154.713 31.274C154.433 31.5073 154.293 31.8247 154.293 32.226C154.293 32.6273 154.433 32.9493 154.713 33.192C155.003 33.4347 155.362 33.556 155.791 33.556C156.23 33.556 156.589 33.4347 156.869 33.192C157.159 32.9493 157.303 32.6273 157.303 32.226C157.303 31.8247 157.159 31.5073 156.869 31.274C156.589 31.0313 156.23 30.91 155.791 30.91ZM160.818 37V26.85H162.316V31.12C162.549 30.6813 162.862 30.364 163.254 30.168C163.655 29.9627 164.099 29.86 164.584 29.86C165.079 29.86 165.522 29.958 165.914 30.154C166.315 30.3407 166.633 30.6253 166.866 31.008C167.099 31.3907 167.216 31.876 167.216 32.464V37H165.718V32.94C165.718 32.2493 165.573 31.7687 165.284 31.498C165.004 31.2273 164.649 31.092 164.22 31.092C163.921 31.092 163.623 31.1667 163.324 31.316C163.035 31.456 162.792 31.6893 162.596 32.016C162.409 32.3333 162.316 32.7627 162.316 33.304V37H160.818ZM171.518 27.942V34.9C171.518 35.2453 171.607 35.4973 171.784 35.656C171.971 35.8147 172.218 35.894 172.526 35.894C172.778 35.894 172.997 35.8567 173.184 35.782C173.371 35.698 173.543 35.586 173.702 35.446L174.038 36.538C173.823 36.7247 173.557 36.874 173.24 36.986C172.932 37.0887 172.587 37.14 172.204 37.14C171.803 37.14 171.434 37.0747 171.098 36.944C170.762 36.8133 170.501 36.6033 170.314 36.314C170.127 36.0153 170.029 35.628 170.02 35.152V28.362L171.518 27.942ZM173.926 30V31.176H168.676V30H173.926ZM184.58 37.14C183.628 37.14 182.793 36.9347 182.074 36.524C181.356 36.104 180.791 35.5347 180.38 34.816C179.979 34.0973 179.778 33.2853 179.778 32.38C179.778 31.4653 179.979 30.6533 180.38 29.944C180.791 29.2253 181.356 28.6607 182.074 28.25C182.793 27.83 183.628 27.62 184.58 27.62C185.523 27.62 186.354 27.83 187.072 28.25C187.8 28.6607 188.365 29.2253 188.766 29.944C189.177 30.6533 189.382 31.4653 189.382 32.38C189.382 33.2853 189.177 34.0973 188.766 34.816C188.365 35.5347 187.8 36.104 187.072 36.524C186.354 36.9347 185.523 37.14 184.58 37.14ZM184.58 36.146C185.327 36.146 185.98 35.9827 186.54 35.656C187.1 35.3293 187.534 34.8813 187.842 34.312C188.15 33.7333 188.304 33.0893 188.304 32.38C188.304 31.6707 188.15 31.0313 187.842 30.462C187.534 29.8833 187.1 29.4307 186.54 29.104C185.98 28.7773 185.327 28.614 184.58 28.614C183.843 28.614 183.19 28.7773 182.62 29.104C182.06 29.4307 181.622 29.8833 181.304 30.462C180.996 31.0313 180.842 31.6707 180.842 32.38C180.842 33.0893 180.996 33.7333 181.304 34.312C181.622 34.8813 182.06 35.3293 182.62 35.656C183.19 35.9827 183.843 36.146 184.58 36.146ZM184.664 35.012C183.862 35.012 183.232 34.7787 182.774 34.312C182.317 33.8453 182.088 33.2107 182.088 32.408C182.088 31.596 182.317 30.9567 182.774 30.49C183.232 30.0233 183.862 29.79 184.664 29.79C185.243 29.79 185.719 29.916 186.092 30.168C186.475 30.42 186.75 30.7607 186.918 31.19L185.938 31.666C185.826 31.3953 185.668 31.1947 185.462 31.064C185.257 30.9333 184.996 30.868 184.678 30.868C184.24 30.868 183.89 31.0033 183.628 31.274C183.376 31.5353 183.25 31.9133 183.25 32.408C183.25 32.8933 183.376 33.2713 183.628 33.542C183.89 33.8127 184.24 33.948 184.678 33.948C185.014 33.948 185.294 33.8827 185.518 33.752C185.742 33.612 185.91 33.3927 186.022 33.094L186.96 33.5C186.774 33.9947 186.489 34.3727 186.106 34.634C185.733 34.886 185.252 35.012 184.664 35.012ZM195.89 37V35.908C196.777 35.2733 197.519 34.7133 198.116 34.228C198.723 33.7427 199.208 33.2947 199.572 32.884C199.936 32.4733 200.198 32.086 200.356 31.722C200.524 31.3487 200.608 30.9707 200.608 30.588C200.608 30.0933 200.454 29.692 200.146 29.384C199.838 29.076 199.409 28.922 198.858 28.922C198.28 28.922 197.818 29.118 197.472 29.51C197.136 29.8927 196.945 30.42 196.898 31.092L195.596 30.49C195.662 29.902 195.834 29.3933 196.114 28.964C196.394 28.5347 196.772 28.2033 197.248 27.97C197.734 27.7367 198.294 27.62 198.928 27.62C199.451 27.62 199.908 27.6947 200.3 27.844C200.702 27.9933 201.038 28.2033 201.308 28.474C201.579 28.7353 201.784 29.0433 201.924 29.398C202.074 29.7527 202.148 30.1307 202.148 30.532C202.148 31.12 202.004 31.6893 201.714 32.24C201.425 32.7813 200.968 33.3367 200.342 33.906C199.717 34.4753 198.896 35.0867 197.878 35.74V35.768C197.99 35.7493 198.144 35.74 198.34 35.74C198.536 35.7307 198.732 35.726 198.928 35.726C199.124 35.7167 199.283 35.712 199.404 35.712H202.316V37H195.89ZM207.593 37.14C206.482 37.14 205.61 36.7387 204.975 35.936C204.35 35.124 204.037 33.9387 204.037 32.38C204.037 30.8213 204.35 29.6407 204.975 28.838C205.61 28.026 206.482 27.62 207.593 27.62C208.713 27.62 209.586 28.026 210.211 28.838C210.846 29.6407 211.163 30.8213 211.163 32.38C211.163 33.9387 210.846 35.124 210.211 35.936C209.586 36.7387 208.713 37.14 207.593 37.14ZM207.593 35.866C208.041 35.866 208.414 35.74 208.713 35.488C209.021 35.2267 209.25 34.8393 209.399 34.326C209.558 33.8033 209.637 33.1547 209.637 32.38C209.637 31.6053 209.558 30.9613 209.399 30.448C209.25 29.9253 209.021 29.538 208.713 29.286C208.414 29.0247 208.041 28.894 207.593 28.894C207.145 28.894 206.767 29.0247 206.459 29.286C206.16 29.538 205.936 29.9253 205.787 30.448C205.638 30.9613 205.563 31.6053 205.563 32.38C205.563 33.1547 205.638 33.8033 205.787 34.326C205.936 34.8393 206.16 35.2267 206.459 35.488C206.767 35.74 207.145 35.866 207.593 35.866ZM213.038 37V35.908C213.925 35.2733 214.667 34.7133 215.264 34.228C215.871 33.7427 216.356 33.2947 216.72 32.884C217.084 32.4733 217.345 32.086 217.504 31.722C217.672 31.3487 217.756 30.9707 217.756 30.588C217.756 30.0933 217.602 29.692 217.294 29.384C216.986 29.076 216.557 28.922 216.006 28.922C215.427 28.922 214.965 29.118 214.62 29.51C214.284 29.8927 214.093 30.42 214.046 31.092L212.744 30.49C212.809 29.902 212.982 29.3933 213.262 28.964C213.542 28.5347 213.92 28.2033 214.396 27.97C214.881 27.7367 215.441 27.62 216.076 27.62C216.599 27.62 217.056 27.6947 217.448 27.844C217.849 27.9933 218.185 28.2033 218.456 28.474C218.727 28.7353 218.932 29.0433 219.072 29.398C219.221 29.7527 219.296 30.1307 219.296 30.532C219.296 31.12 219.151 31.6893 218.862 32.24C218.573 32.7813 218.115 33.3367 217.49 33.906C216.865 34.4753 216.043 35.0867 215.026 35.74V35.768C215.138 35.7493 215.292 35.74 215.488 35.74C215.684 35.7307 215.88 35.726 216.076 35.726C216.272 35.7167 216.431 35.712 216.552 35.712H219.464V37H213.038ZM224.447 37.14C223.579 37.14 222.823 36.9487 222.179 36.566C221.544 36.174 221.11 35.628 220.877 34.928L222.333 34.242C222.417 34.578 222.548 34.8673 222.725 35.11C222.902 35.3527 223.136 35.5393 223.425 35.67C223.714 35.7913 224.074 35.852 224.503 35.852C224.867 35.852 225.175 35.7867 225.427 35.656C225.679 35.5253 225.87 35.3433 226.001 35.11C226.141 34.8767 226.211 34.6107 226.211 34.312C226.211 34.004 226.15 33.7473 226.029 33.542C225.917 33.3367 225.735 33.1873 225.483 33.094C225.24 33.0007 224.928 32.954 224.545 32.954C224.433 32.954 224.316 32.9587 224.195 32.968C224.083 32.968 223.962 32.9773 223.831 32.996V31.736C223.915 31.7453 223.994 31.7547 224.069 31.764C224.153 31.764 224.232 31.764 224.307 31.764C224.914 31.764 225.348 31.6427 225.609 31.4C225.87 31.1573 226.001 30.7793 226.001 30.266C226.001 29.8273 225.866 29.4913 225.595 29.258C225.334 29.0247 224.956 28.908 224.461 28.908C223.948 28.908 223.546 29.0293 223.257 29.272C222.977 29.5053 222.762 29.846 222.613 30.294L221.241 29.72C221.372 29.2907 221.591 28.9173 221.899 28.6C222.207 28.2827 222.585 28.04 223.033 27.872C223.49 27.6947 223.99 27.606 224.531 27.606C225.194 27.606 225.744 27.7133 226.183 27.928C226.631 28.1427 226.962 28.4367 227.177 28.81C227.401 29.1833 227.513 29.5987 227.513 30.056C227.513 30.4107 227.462 30.7233 227.359 30.994C227.256 31.2553 227.116 31.484 226.939 31.68C226.771 31.8667 226.584 32.0113 226.379 32.114C226.183 32.2167 225.982 32.2867 225.777 32.324V32.352C226.048 32.3613 226.295 32.4173 226.519 32.52C226.752 32.6133 226.958 32.7487 227.135 32.926C227.322 33.094 227.466 33.2993 227.569 33.542C227.672 33.7847 227.723 34.0507 227.723 34.34C227.723 34.9 227.583 35.39 227.303 35.81C227.023 36.23 226.636 36.5567 226.141 36.79C225.656 37.0233 225.091 37.14 224.447 37.14ZM238.155 37.14C237.744 37.14 237.366 37.0607 237.021 36.902C236.685 36.7433 236.4 36.524 236.167 36.244C235.933 35.9547 235.761 35.6327 235.649 35.278L235.831 35.04L235.719 37H234.403V26.85H235.901V31.764L235.733 31.526C235.91 31.0407 236.213 30.644 236.643 30.336C237.072 30.0187 237.59 29.86 238.197 29.86C238.757 29.86 239.27 30.0047 239.737 30.294C240.213 30.5833 240.586 30.9987 240.857 31.54C241.127 32.0813 241.263 32.7393 241.263 33.514C241.263 34.27 241.123 34.9187 240.843 35.46C240.572 36.0013 240.199 36.4167 239.723 36.706C239.256 36.9953 238.733 37.14 238.155 37.14ZM237.833 35.936C238.439 35.936 238.911 35.7213 239.247 35.292C239.592 34.8533 239.765 34.256 239.765 33.5C239.765 32.744 239.597 32.1513 239.261 31.722C238.925 31.2927 238.453 31.078 237.847 31.078C237.455 31.078 237.114 31.1807 236.825 31.386C236.535 31.582 236.307 31.862 236.139 32.226C235.98 32.59 235.901 33.024 235.901 33.528C235.901 34.0227 235.98 34.452 236.139 34.816C236.297 35.1707 236.521 35.446 236.811 35.642C237.109 35.838 237.45 35.936 237.833 35.936ZM249.136 30L246.07 37.826C245.865 38.3673 245.641 38.7967 245.398 39.114C245.165 39.4313 244.894 39.66 244.586 39.8C244.278 39.94 243.919 40.01 243.508 40.01C243.172 40.01 242.86 39.9633 242.57 39.87C242.29 39.786 242.043 39.6693 241.828 39.52L242.192 38.358C242.37 38.5073 242.556 38.6193 242.752 38.694C242.958 38.7687 243.177 38.806 243.41 38.806C243.662 38.806 243.886 38.736 244.082 38.596C244.288 38.4653 244.47 38.1993 244.628 37.798L244.936 37.042L244.194 35.306L242.01 30H243.69L245.244 34.396L245.65 35.712L246.112 34.27L247.582 30H249.136ZM254.975 37V27.76H258.615C259.726 27.76 260.538 27.984 261.051 28.432C261.564 28.88 261.821 29.5007 261.821 30.294C261.821 30.7793 261.681 31.2133 261.401 31.596C261.121 31.9693 260.71 32.2073 260.169 32.31V32.324C260.766 32.4173 261.228 32.6647 261.555 33.066C261.891 33.458 262.059 33.9153 262.059 34.438C262.059 35.2313 261.77 35.8567 261.191 36.314C260.612 36.7713 259.772 37 258.671 37H254.975ZM256.445 35.754H258.741C259.329 35.754 259.768 35.6327 260.057 35.39C260.356 35.1473 260.505 34.8067 260.505 34.368C260.505 33.9293 260.356 33.5887 260.057 33.346C259.768 33.1033 259.329 32.982 258.741 32.982H256.445V35.754ZM256.445 31.736H258.503C259.679 31.736 260.267 31.2833 260.267 30.378C260.267 29.4727 259.679 29.02 258.503 29.02H256.445V31.736ZM268.151 32.506C268.151 32.0393 268.02 31.68 267.759 31.428C267.507 31.1667 267.157 31.036 266.709 31.036C266.289 31.036 265.929 31.134 265.631 31.33C265.332 31.526 265.113 31.8433 264.973 32.282L263.713 31.75C263.89 31.1807 264.235 30.7233 264.749 30.378C265.271 30.0327 265.943 29.86 266.765 29.86C267.325 29.86 267.819 29.9533 268.249 30.14C268.678 30.3173 269.014 30.588 269.257 30.952C269.509 31.316 269.635 31.7827 269.635 32.352V35.474C269.635 35.8193 269.807 35.992 270.153 35.992C270.321 35.992 270.484 35.9687 270.643 35.922L270.559 36.958C270.344 37.0607 270.073 37.112 269.747 37.112C269.448 37.112 269.177 37.0607 268.935 36.958C268.701 36.846 268.515 36.6827 268.375 36.468C268.244 36.244 268.179 35.9687 268.179 35.642V35.544L268.487 35.53C268.403 35.894 268.23 36.1973 267.969 36.44C267.707 36.6733 267.404 36.8507 267.059 36.972C266.713 37.084 266.363 37.14 266.009 37.14C265.57 37.14 265.173 37.07 264.819 36.93C264.473 36.79 264.198 36.58 263.993 36.3C263.797 36.0107 263.699 35.656 263.699 35.236C263.699 34.7133 263.867 34.284 264.203 33.948C264.548 33.612 265.033 33.3833 265.659 33.262L268.375 32.73L268.361 33.78L266.387 34.186C265.995 34.2607 265.701 34.368 265.505 34.508C265.309 34.648 265.211 34.8533 265.211 35.124C265.211 35.3853 265.309 35.5953 265.505 35.754C265.71 35.9033 265.981 35.978 266.317 35.978C266.55 35.978 266.774 35.95 266.989 35.894C267.213 35.838 267.413 35.7493 267.591 35.628C267.768 35.4973 267.903 35.334 267.997 35.138C268.099 34.9327 268.151 34.69 268.151 34.41V32.506ZM278.767 30L275.645 33.192L275.323 33.416L273.125 35.698L273.111 33.99L276.989 30H278.767ZM273.657 26.85V37H272.159V26.85H273.657ZM275.827 32.352L278.935 37H277.199L274.707 33.206L275.827 32.352ZM282.928 37.14C282.228 37.14 281.589 37.0047 281.01 36.734C280.431 36.4633 279.974 36.0807 279.638 35.586L280.674 34.69C280.879 35.0727 281.173 35.3807 281.556 35.614C281.948 35.838 282.415 35.95 282.956 35.95C283.385 35.95 283.726 35.8753 283.978 35.726C284.23 35.5767 284.356 35.3667 284.356 35.096C284.356 34.9187 284.295 34.7647 284.174 34.634C284.062 34.494 283.843 34.3867 283.516 34.312L282.046 34.004C281.299 33.8547 280.767 33.6167 280.45 33.29C280.133 32.954 279.974 32.5293 279.974 32.016C279.974 31.6333 280.086 31.2787 280.31 30.952C280.534 30.6253 280.861 30.364 281.29 30.168C281.729 29.9627 282.251 29.86 282.858 29.86C283.558 29.86 284.155 29.986 284.65 30.238C285.145 30.4807 285.523 30.8307 285.784 31.288L284.748 32.156C284.571 31.7827 284.309 31.5073 283.964 31.33C283.619 31.1433 283.259 31.05 282.886 31.05C282.587 31.05 282.331 31.0873 282.116 31.162C281.901 31.2367 281.738 31.3393 281.626 31.47C281.514 31.6007 281.458 31.7547 281.458 31.932C281.458 32.1187 281.528 32.282 281.668 32.422C281.808 32.562 282.06 32.6693 282.424 32.744L284.02 33.08C284.692 33.2107 285.163 33.4347 285.434 33.752C285.714 34.06 285.854 34.438 285.854 34.886C285.854 35.334 285.737 35.7307 285.504 36.076C285.271 36.412 284.935 36.6733 284.496 36.86C284.057 37.0467 283.535 37.14 282.928 37.14ZM290.773 29.86C291.454 29.86 292.056 30.0047 292.579 30.294C293.101 30.5833 293.507 31.0033 293.797 31.554C294.095 32.0953 294.245 32.744 294.245 33.5C294.245 34.256 294.095 34.9093 293.797 35.46C293.507 36.0013 293.101 36.4167 292.579 36.706C292.056 36.9953 291.454 37.14 290.773 37.14C290.091 37.14 289.489 36.9953 288.967 36.706C288.444 36.4167 288.033 36.0013 287.735 35.46C287.436 34.9093 287.287 34.256 287.287 33.5C287.287 32.744 287.436 32.0953 287.735 31.554C288.033 31.0033 288.444 30.5833 288.967 30.294C289.489 30.0047 290.091 29.86 290.773 29.86ZM290.773 31.036C290.353 31.036 289.993 31.134 289.695 31.33C289.405 31.5167 289.181 31.792 289.023 32.156C288.864 32.52 288.785 32.968 288.785 33.5C288.785 34.0227 288.864 34.4707 289.023 34.844C289.181 35.208 289.405 35.488 289.695 35.684C289.993 35.8707 290.353 35.964 290.773 35.964C291.193 35.964 291.547 35.8707 291.837 35.684C292.126 35.488 292.35 35.208 292.509 34.844C292.667 34.4707 292.747 34.0227 292.747 33.5C292.747 32.968 292.667 32.52 292.509 32.156C292.35 31.792 292.126 31.5167 291.837 31.33C291.547 31.134 291.193 31.036 290.773 31.036ZM304.588 27.76C305.25 27.76 305.82 27.8767 306.296 28.11C306.781 28.3433 307.159 28.6747 307.43 29.104C307.7 29.5333 307.836 30.0513 307.836 30.658C307.836 31.2553 307.7 31.7733 307.43 32.212C307.159 32.6413 306.781 32.9727 306.296 33.206C305.82 33.4393 305.25 33.556 304.588 33.556H302.53V37H301.032V27.76H304.588ZM304.35 32.268C305.012 32.268 305.498 32.1327 305.806 31.862C306.123 31.582 306.282 31.1807 306.282 30.658C306.282 30.126 306.123 29.7247 305.806 29.454C305.498 29.174 305.012 29.034 304.35 29.034H302.53V32.268H304.35ZM309.669 37V30H310.943L311.083 31.26C311.27 30.8027 311.545 30.4573 311.909 30.224C312.282 29.9813 312.74 29.86 313.281 29.86C313.421 29.86 313.561 29.874 313.701 29.902C313.841 29.9207 313.958 29.9533 314.051 30L313.841 31.316C313.738 31.2787 313.622 31.2507 313.491 31.232C313.37 31.204 313.202 31.19 312.987 31.19C312.698 31.19 312.413 31.2693 312.133 31.428C311.853 31.5773 311.62 31.806 311.433 32.114C311.256 32.422 311.167 32.814 311.167 33.29V37H309.669ZM318.438 37.14C317.738 37.14 317.122 36.9953 316.59 36.706C316.058 36.4167 315.643 36.0013 315.344 35.46C315.055 34.9093 314.91 34.256 314.91 33.5C314.91 32.744 315.055 32.0953 315.344 31.554C315.643 31.0033 316.054 30.5833 316.576 30.294C317.099 30.0047 317.692 29.86 318.354 29.86C319.036 29.86 319.614 30 320.09 30.28C320.566 30.56 320.93 30.9427 321.182 31.428C321.434 31.9133 321.56 32.464 321.56 33.08C321.56 33.248 321.556 33.4067 321.546 33.556C321.537 33.7053 321.523 33.836 321.504 33.948H315.876V32.8H320.846L320.104 33.024C320.104 32.3893 319.946 31.904 319.628 31.568C319.311 31.2227 318.877 31.05 318.326 31.05C317.925 31.05 317.575 31.1433 317.276 31.33C316.978 31.5167 316.749 31.7967 316.59 32.17C316.432 32.534 316.352 32.982 316.352 33.514C316.352 34.0367 316.436 34.48 316.604 34.844C316.772 35.208 317.01 35.4833 317.318 35.67C317.626 35.8567 317.99 35.95 318.41 35.95C318.877 35.95 319.255 35.8613 319.544 35.684C319.834 35.5067 320.062 35.2593 320.23 34.942L321.42 35.502C321.252 35.838 321.024 36.132 320.734 36.384C320.454 36.6267 320.118 36.8133 319.726 36.944C319.334 37.0747 318.905 37.14 318.438 37.14ZM326.182 37.14C325.482 37.14 324.843 37.0047 324.264 36.734C323.685 36.4633 323.228 36.0807 322.892 35.586L323.928 34.69C324.133 35.0727 324.427 35.3807 324.81 35.614C325.202 35.838 325.669 35.95 326.21 35.95C326.639 35.95 326.98 35.8753 327.232 35.726C327.484 35.5767 327.61 35.3667 327.61 35.096C327.61 34.9187 327.549 34.7647 327.428 34.634C327.316 34.494 327.097 34.3867 326.77 34.312L325.3 34.004C324.553 33.8547 324.021 33.6167 323.704 33.29C323.387 32.954 323.228 32.5293 323.228 32.016C323.228 31.6333 323.34 31.2787 323.564 30.952C323.788 30.6253 324.115 30.364 324.544 30.168C324.983 29.9627 325.505 29.86 326.112 29.86C326.812 29.86 327.409 29.986 327.904 30.238C328.399 30.4807 328.777 30.8307 329.038 31.288L328.002 32.156C327.825 31.7827 327.563 31.5073 327.218 31.33C326.873 31.1433 326.513 31.05 326.14 31.05C325.841 31.05 325.585 31.0873 325.37 31.162C325.155 31.2367 324.992 31.3393 324.88 31.47C324.768 31.6007 324.712 31.7547 324.712 31.932C324.712 32.1187 324.782 32.282 324.922 32.422C325.062 32.562 325.314 32.6693 325.678 32.744L327.274 33.08C327.946 33.2107 328.417 33.4347 328.688 33.752C328.968 34.06 329.108 34.438 329.108 34.886C329.108 35.334 328.991 35.7307 328.758 36.076C328.525 36.412 328.189 36.6733 327.75 36.86C327.311 37.0467 326.789 37.14 326.182 37.14ZM331.758 28.824C331.432 28.824 331.18 28.7447 331.002 28.586C330.834 28.418 330.75 28.1847 330.75 27.886C330.75 27.5873 330.834 27.3587 331.002 27.2C331.18 27.0413 331.432 26.962 331.758 26.962C332.076 26.962 332.318 27.0413 332.486 27.2C332.664 27.3587 332.752 27.5873 332.752 27.886C332.752 28.1847 332.664 28.418 332.486 28.586C332.318 28.7447 332.076 28.824 331.758 28.824ZM332.5 30V37H331.002V30H332.5ZM337.602 37.14C337.023 37.14 336.496 36.9953 336.02 36.706C335.553 36.4167 335.185 36.0013 334.914 35.46C334.643 34.9187 334.508 34.27 334.508 33.514C334.508 32.73 334.653 32.0673 334.942 31.526C335.231 30.9847 335.619 30.574 336.104 30.294C336.589 30.0047 337.121 29.86 337.7 29.86C338.297 29.86 338.801 30.0233 339.212 30.35C339.623 30.6767 339.898 31.1013 340.038 31.624L339.87 31.778V26.85H341.368V37H340.038L339.926 35.096L340.122 35.11C340.057 35.53 339.903 35.894 339.66 36.202C339.417 36.5007 339.114 36.734 338.75 36.902C338.395 37.0607 338.013 37.14 337.602 37.14ZM337.924 35.936C338.325 35.936 338.671 35.8333 338.96 35.628C339.249 35.4227 339.473 35.1333 339.632 34.76C339.791 34.3867 339.87 33.9387 339.87 33.416C339.87 32.9307 339.791 32.5153 339.632 32.17C339.473 31.8153 339.249 31.5447 338.96 31.358C338.68 31.1713 338.353 31.078 337.98 31.078C337.355 31.078 336.869 31.2927 336.524 31.722C336.179 32.1513 336.006 32.744 336.006 33.5C336.006 34.256 336.174 34.8533 336.51 35.292C336.846 35.7213 337.317 35.936 337.924 35.936ZM346.841 37.14C346.141 37.14 345.525 36.9953 344.993 36.706C344.461 36.4167 344.046 36.0013 343.747 35.46C343.458 34.9093 343.313 34.256 343.313 33.5C343.313 32.744 343.458 32.0953 343.747 31.554C344.046 31.0033 344.457 30.5833 344.979 30.294C345.502 30.0047 346.095 29.86 346.757 29.86C347.439 29.86 348.017 30 348.493 30.28C348.969 30.56 349.333 30.9427 349.585 31.428C349.837 31.9133 349.963 32.464 349.963 33.08C349.963 33.248 349.959 33.4067 349.949 33.556C349.94 33.7053 349.926 33.836 349.907 33.948H344.279V32.8H349.249L348.507 33.024C348.507 32.3893 348.349 31.904 348.031 31.568C347.714 31.2227 347.28 31.05 346.729 31.05C346.328 31.05 345.978 31.1433 345.679 31.33C345.381 31.5167 345.152 31.7967 344.993 32.17C344.835 32.534 344.755 32.982 344.755 33.514C344.755 34.0367 344.839 34.48 345.007 34.844C345.175 35.208 345.413 35.4833 345.721 35.67C346.029 35.8567 346.393 35.95 346.813 35.95C347.28 35.95 347.658 35.8613 347.947 35.684C348.237 35.5067 348.465 35.2593 348.633 34.942L349.823 35.502C349.655 35.838 349.427 36.132 349.137 36.384C348.857 36.6267 348.521 36.8133 348.129 36.944C347.737 37.0747 347.308 37.14 346.841 37.14ZM351.925 37V30H353.255L353.353 31.82L353.157 31.624C353.288 31.2227 353.474 30.8913 353.717 30.63C353.969 30.3593 354.263 30.1633 354.599 30.042C354.944 29.9207 355.308 29.86 355.691 29.86C356.186 29.86 356.629 29.958 357.021 30.154C357.422 30.3407 357.74 30.6253 357.973 31.008C358.206 31.3907 358.323 31.876 358.323 32.464V37H356.825V32.926C356.825 32.2353 356.68 31.7593 356.391 31.498C356.111 31.2273 355.756 31.092 355.327 31.092C355.019 31.092 354.72 31.1667 354.431 31.316C354.142 31.456 353.899 31.6847 353.703 32.002C353.516 32.3193 353.423 32.744 353.423 33.276V37H351.925ZM362.625 27.942V34.9C362.625 35.2453 362.714 35.4973 362.891 35.656C363.078 35.8147 363.325 35.894 363.633 35.894C363.885 35.894 364.104 35.8567 364.291 35.782C364.478 35.698 364.65 35.586 364.809 35.446L365.145 36.538C364.93 36.7247 364.664 36.874 364.347 36.986C364.039 37.0887 363.694 37.14 363.311 37.14C362.91 37.14 362.541 37.0747 362.205 36.944C361.869 36.8133 361.608 36.6033 361.421 36.314C361.234 36.0153 361.136 35.628 361.127 35.152V28.362L362.625 27.942ZM365.033 30V31.176H359.783V30H365.033ZM367.368 35.11C367.685 35.11 367.937 35.2033 368.124 35.39C368.32 35.5673 368.418 35.81 368.418 36.118C368.418 36.426 368.32 36.6733 368.124 36.86C367.937 37.0467 367.685 37.14 367.368 37.14C367.041 37.14 366.78 37.0467 366.584 36.86C366.397 36.6733 366.304 36.426 366.304 36.118C366.304 35.81 366.397 35.5673 366.584 35.39C366.78 35.2033 367.041 35.11 367.368 35.11ZM382.536 37H380.954L380.072 34.578H376.194L375.312 37H373.772L377.258 27.76H379.05L382.536 37ZM376.614 33.36H379.652L378.14 29.048L376.614 33.36ZM385.491 26.85V35.04C385.491 35.3853 385.552 35.6233 385.673 35.754C385.794 35.8847 385.995 35.95 386.275 35.95C386.443 35.95 386.583 35.9407 386.695 35.922C386.816 35.894 386.966 35.8473 387.143 35.782L386.975 36.902C386.816 36.9767 386.634 37.0327 386.429 37.07C386.224 37.1167 386.018 37.14 385.813 37.14C385.188 37.14 384.726 36.9813 384.427 36.664C384.138 36.3373 383.993 35.838 383.993 35.166V26.85H385.491ZM389.922 26.85V35.04C389.922 35.3853 389.983 35.6233 390.104 35.754C390.226 35.8847 390.426 35.95 390.706 35.95C390.874 35.95 391.014 35.9407 391.126 35.922C391.248 35.894 391.397 35.8473 391.574 35.782L391.406 36.902C391.248 36.9767 391.066 37.0327 390.86 37.07C390.655 37.1167 390.45 37.14 390.244 37.14C389.619 37.14 389.157 36.9813 388.858 36.664C388.569 36.3373 388.424 35.838 388.424 35.166V26.85H389.922ZM401.086 27.76C402.075 27.76 402.859 28.0073 403.438 28.502C404.026 28.9967 404.32 29.664 404.32 30.504C404.32 31.372 404.026 32.044 403.438 32.52C402.859 32.9867 402.075 33.22 401.086 33.22L400.946 33.304H398.804V37H397.32V27.76H401.086ZM400.974 32.058C401.581 32.058 402.029 31.9367 402.318 31.694C402.617 31.442 402.766 31.0593 402.766 30.546C402.766 30.042 402.617 29.664 402.318 29.412C402.029 29.16 401.581 29.034 400.974 29.034H398.804V32.058H400.974ZM401.856 32.366L404.866 37H403.144L400.568 32.954L401.856 32.366ZM407.288 28.824C406.961 28.824 406.709 28.7447 406.532 28.586C406.364 28.418 406.28 28.1847 406.28 27.886C406.28 27.5873 406.364 27.3587 406.532 27.2C406.709 27.0413 406.961 26.962 407.288 26.962C407.605 26.962 407.848 27.0413 408.016 27.2C408.193 27.3587 408.282 27.5873 408.282 27.886C408.282 28.1847 408.193 28.418 408.016 28.586C407.848 28.7447 407.605 28.824 407.288 28.824ZM408.03 30V37H406.532V30H408.03ZM416.603 28.53L416.841 29.706C416.813 29.706 416.785 29.706 416.757 29.706C416.729 29.6967 416.701 29.692 416.673 29.692C416.225 29.692 415.885 29.79 415.651 29.986C415.418 30.1727 415.301 30.448 415.301 30.812L414.573 30.476C414.573 30.1027 414.653 29.7713 414.811 29.482C414.97 29.1833 415.194 28.95 415.483 28.782C415.782 28.614 416.118 28.53 416.491 28.53C416.51 28.53 416.529 28.53 416.547 28.53C416.566 28.53 416.585 28.53 416.603 28.53ZM414.391 35.908C415.101 35.908 415.651 36.0667 416.043 36.384C416.435 36.692 416.631 37.1213 416.631 37.672C416.631 38.1573 416.477 38.5727 416.169 38.918C415.861 39.2727 415.441 39.5433 414.909 39.73C414.387 39.9167 413.785 40.01 413.103 40.01C411.955 40.01 411.106 39.8327 410.555 39.478C410.005 39.1233 409.729 38.68 409.729 38.148C409.729 37.7747 409.86 37.448 410.121 37.168C410.392 36.888 410.845 36.7293 411.479 36.692L411.395 36.916C411.003 36.832 410.686 36.6827 410.443 36.468C410.21 36.244 410.093 35.9313 410.093 35.53C410.093 35.1287 410.247 34.788 410.555 34.508C410.863 34.228 411.297 34.0647 411.857 34.018L412.641 34.396H412.473C412.044 34.4333 411.741 34.5313 411.563 34.69C411.386 34.8487 411.297 35.026 411.297 35.222C411.297 35.4553 411.381 35.628 411.549 35.74C411.727 35.852 411.974 35.908 412.291 35.908H414.391ZM413.103 38.89C413.617 38.89 414.037 38.8387 414.363 38.736C414.699 38.6427 414.947 38.5167 415.105 38.358C415.273 38.2087 415.357 38.0407 415.357 37.854C415.357 37.6393 415.269 37.4667 415.091 37.336C414.923 37.2053 414.615 37.14 414.167 37.14H411.913C411.652 37.14 411.433 37.2053 411.255 37.336C411.078 37.476 410.989 37.6627 410.989 37.896C410.989 38.204 411.176 38.4467 411.549 38.624C411.923 38.8013 412.441 38.89 413.103 38.89ZM413.047 29.86C413.663 29.86 414.195 29.958 414.643 30.154C415.101 30.35 415.451 30.6253 415.693 30.98C415.945 31.3347 416.071 31.75 416.071 32.226C416.071 32.702 415.945 33.1173 415.693 33.472C415.451 33.8267 415.101 34.102 414.643 34.298C414.195 34.494 413.663 34.592 413.047 34.592C412.077 34.592 411.33 34.3773 410.807 33.948C410.294 33.5093 410.037 32.9353 410.037 32.226C410.037 31.75 410.163 31.3347 410.415 30.98C410.667 30.6253 411.017 30.35 411.465 30.154C411.923 29.958 412.45 29.86 413.047 29.86ZM413.047 30.91C412.618 30.91 412.259 31.0313 411.969 31.274C411.689 31.5073 411.549 31.8247 411.549 32.226C411.549 32.6273 411.689 32.9493 411.969 33.192C412.259 33.4347 412.618 33.556 413.047 33.556C413.486 33.556 413.845 33.4347 414.125 33.192C414.415 32.9493 414.559 32.6273 414.559 32.226C414.559 31.8247 414.415 31.5073 414.125 31.274C413.845 31.0313 413.486 30.91 413.047 30.91ZM418.074 37V26.85H419.572V31.12C419.805 30.6813 420.118 30.364 420.51 30.168C420.911 29.9627 421.355 29.86 421.84 29.86C422.335 29.86 422.778 29.958 423.17 30.154C423.571 30.3407 423.889 30.6253 424.122 31.008C424.355 31.3907 424.472 31.876 424.472 32.464V37H422.974V32.94C422.974 32.2493 422.829 31.7687 422.54 31.498C422.26 31.2273 421.905 31.092 421.476 31.092C421.177 31.092 420.879 31.1667 420.58 31.316C420.291 31.456 420.048 31.6893 419.852 32.016C419.665 32.3333 419.572 32.7627 419.572 33.304V37H418.074ZM428.774 27.942V34.9C428.774 35.2453 428.863 35.4973 429.04 35.656C429.227 35.8147 429.474 35.894 429.782 35.894C430.034 35.894 430.253 35.8567 430.44 35.782C430.627 35.698 430.799 35.586 430.958 35.446L431.294 36.538C431.079 36.7247 430.813 36.874 430.496 36.986C430.188 37.0887 429.843 37.14 429.46 37.14C429.059 37.14 428.69 37.0747 428.354 36.944C428.018 36.8133 427.757 36.6033 427.57 36.314C427.383 36.0153 427.285 35.628 427.276 35.152V28.362L428.774 27.942ZM431.182 30V31.176H425.932V30H431.182ZM435.394 37.14C434.694 37.14 434.054 37.0047 433.476 36.734C432.897 36.4633 432.44 36.0807 432.104 35.586L433.14 34.69C433.345 35.0727 433.639 35.3807 434.022 35.614C434.414 35.838 434.88 35.95 435.422 35.95C435.851 35.95 436.192 35.8753 436.444 35.726C436.696 35.5767 436.822 35.3667 436.822 35.096C436.822 34.9187 436.761 34.7647 436.64 34.634C436.528 34.494 436.308 34.3867 435.982 34.312L434.512 34.004C433.765 33.8547 433.233 33.6167 432.916 33.29C432.598 32.954 432.44 32.5293 432.44 32.016C432.44 31.6333 432.552 31.2787 432.776 30.952C433 30.6253 433.326 30.364 433.756 30.168C434.194 29.9627 434.717 29.86 435.324 29.86C436.024 29.86 436.621 29.986 437.116 30.238C437.61 30.4807 437.988 30.8307 438.25 31.288L437.214 32.156C437.036 31.7827 436.775 31.5073 436.43 31.33C436.084 31.1433 435.725 31.05 435.352 31.05C435.053 31.05 434.796 31.0873 434.582 31.162C434.367 31.2367 434.204 31.3393 434.092 31.47C433.98 31.6007 433.924 31.7547 433.924 31.932C433.924 32.1187 433.994 32.282 434.134 32.422C434.274 32.562 434.526 32.6693 434.89 32.744L436.486 33.08C437.158 33.2107 437.629 33.4347 437.9 33.752C438.18 34.06 438.32 34.438 438.32 34.886C438.32 35.334 438.203 35.7307 437.97 36.076C437.736 36.412 437.4 36.6733 436.962 36.86C436.523 37.0467 436 37.14 435.394 37.14ZM448.812 27.76C449.802 27.76 450.586 28.0073 451.164 28.502C451.752 28.9967 452.046 29.664 452.046 30.504C452.046 31.372 451.752 32.044 451.164 32.52C450.586 32.9867 449.802 33.22 448.812 33.22L448.672 33.304H446.53V37H445.046V27.76H448.812ZM448.7 32.058C449.307 32.058 449.755 31.9367 450.044 31.694C450.343 31.442 450.492 31.0593 450.492 30.546C450.492 30.042 450.343 29.664 450.044 29.412C449.755 29.16 449.307 29.034 448.7 29.034H446.53V32.058H448.7ZM449.582 32.366L452.592 37H450.87L448.294 32.954L449.582 32.366ZM457.201 37.14C456.501 37.14 455.885 36.9953 455.353 36.706C454.821 36.4167 454.406 36.0013 454.107 35.46C453.818 34.9093 453.673 34.256 453.673 33.5C453.673 32.744 453.818 32.0953 454.107 31.554C454.406 31.0033 454.817 30.5833 455.339 30.294C455.862 30.0047 456.455 29.86 457.117 29.86C457.799 29.86 458.377 30 458.853 30.28C459.329 30.56 459.693 30.9427 459.945 31.428C460.197 31.9133 460.323 32.464 460.323 33.08C460.323 33.248 460.319 33.4067 460.309 33.556C460.3 33.7053 460.286 33.836 460.267 33.948H454.639V32.8H459.609L458.867 33.024C458.867 32.3893 458.709 31.904 458.391 31.568C458.074 31.2227 457.64 31.05 457.089 31.05C456.688 31.05 456.338 31.1433 456.039 31.33C455.741 31.5167 455.512 31.7967 455.353 32.17C455.195 32.534 455.115 32.982 455.115 33.514C455.115 34.0367 455.199 34.48 455.367 34.844C455.535 35.208 455.773 35.4833 456.081 35.67C456.389 35.8567 456.753 35.95 457.173 35.95C457.64 35.95 458.018 35.8613 458.307 35.684C458.597 35.5067 458.825 35.2593 458.993 34.942L460.183 35.502C460.015 35.838 459.787 36.132 459.497 36.384C459.217 36.6267 458.881 36.8133 458.489 36.944C458.097 37.0747 457.668 37.14 457.201 37.14ZM464.945 37.14C464.245 37.14 463.606 37.0047 463.027 36.734C462.448 36.4633 461.991 36.0807 461.655 35.586L462.691 34.69C462.896 35.0727 463.19 35.3807 463.573 35.614C463.965 35.838 464.432 35.95 464.973 35.95C465.402 35.95 465.743 35.8753 465.995 35.726C466.247 35.5767 466.373 35.3667 466.373 35.096C466.373 34.9187 466.312 34.7647 466.191 34.634C466.079 34.494 465.86 34.3867 465.533 34.312L464.063 34.004C463.316 33.8547 462.784 33.6167 462.467 33.29C462.15 32.954 461.991 32.5293 461.991 32.016C461.991 31.6333 462.103 31.2787 462.327 30.952C462.551 30.6253 462.878 30.364 463.307 30.168C463.746 29.9627 464.268 29.86 464.875 29.86C465.575 29.86 466.172 29.986 466.667 30.238C467.162 30.4807 467.54 30.8307 467.801 31.288L466.765 32.156C466.588 31.7827 466.326 31.5073 465.981 31.33C465.636 31.1433 465.276 31.05 464.903 31.05C464.604 31.05 464.348 31.0873 464.133 31.162C463.918 31.2367 463.755 31.3393 463.643 31.47C463.531 31.6007 463.475 31.7547 463.475 31.932C463.475 32.1187 463.545 32.282 463.685 32.422C463.825 32.562 464.077 32.6693 464.441 32.744L466.037 33.08C466.709 33.2107 467.18 33.4347 467.451 33.752C467.731 34.06 467.871 34.438 467.871 34.886C467.871 35.334 467.754 35.7307 467.521 36.076C467.288 36.412 466.952 36.6733 466.513 36.86C466.074 37.0467 465.552 37.14 464.945 37.14ZM472.831 37.14C472.131 37.14 471.515 36.9953 470.983 36.706C470.451 36.4167 470.036 36.0013 469.737 35.46C469.448 34.9093 469.303 34.256 469.303 33.5C469.303 32.744 469.448 32.0953 469.737 31.554C470.036 31.0033 470.447 30.5833 470.969 30.294C471.492 30.0047 472.085 29.86 472.747 29.86C473.429 29.86 474.007 30 474.483 30.28C474.959 30.56 475.323 30.9427 475.575 31.428C475.827 31.9133 475.953 32.464 475.953 33.08C475.953 33.248 475.949 33.4067 475.939 33.556C475.93 33.7053 475.916 33.836 475.897 33.948H470.269V32.8H475.239L474.497 33.024C474.497 32.3893 474.339 31.904 474.021 31.568C473.704 31.2227 473.27 31.05 472.719 31.05C472.318 31.05 471.968 31.1433 471.669 31.33C471.371 31.5167 471.142 31.7967 470.983 32.17C470.825 32.534 470.745 32.982 470.745 33.514C470.745 34.0367 470.829 34.48 470.997 34.844C471.165 35.208 471.403 35.4833 471.711 35.67C472.019 35.8567 472.383 35.95 472.803 35.95C473.27 35.95 473.648 35.8613 473.937 35.684C474.227 35.5067 474.455 35.2593 474.623 34.942L475.813 35.502C475.645 35.838 475.417 36.132 475.127 36.384C474.847 36.6267 474.511 36.8133 474.119 36.944C473.727 37.0747 473.298 37.14 472.831 37.14ZM477.915 37V30H479.189L479.329 31.26C479.516 30.8027 479.791 30.4573 480.155 30.224C480.529 29.9813 480.986 29.86 481.527 29.86C481.667 29.86 481.807 29.874 481.947 29.902C482.087 29.9207 482.204 29.9533 482.297 30L482.087 31.316C481.985 31.2787 481.868 31.2507 481.737 31.232C481.616 31.204 481.448 31.19 481.233 31.19C480.944 31.19 480.659 31.2693 480.379 31.428C480.099 31.5773 479.866 31.806 479.679 32.114C479.502 32.422 479.413 32.814 479.413 33.29V37H477.915ZM488.388 30H489.956L487.17 37H485.532L482.732 30H484.37L486.358 35.698L488.388 30ZM494.342 37.14C493.642 37.14 493.026 36.9953 492.494 36.706C491.962 36.4167 491.547 36.0013 491.248 35.46C490.959 34.9093 490.814 34.256 490.814 33.5C490.814 32.744 490.959 32.0953 491.248 31.554C491.547 31.0033 491.958 30.5833 492.48 30.294C493.003 30.0047 493.596 29.86 494.258 29.86C494.94 29.86 495.518 30 495.994 30.28C496.47 30.56 496.834 30.9427 497.086 31.428C497.338 31.9133 497.464 32.464 497.464 33.08C497.464 33.248 497.46 33.4067 497.45 33.556C497.441 33.7053 497.427 33.836 497.408 33.948H491.78V32.8H496.75L496.008 33.024C496.008 32.3893 495.85 31.904 495.532 31.568C495.215 31.2227 494.781 31.05 494.23 31.05C493.829 31.05 493.479 31.1433 493.18 31.33C492.882 31.5167 492.653 31.7967 492.494 32.17C492.336 32.534 492.256 32.982 492.256 33.514C492.256 34.0367 492.34 34.48 492.508 34.844C492.676 35.208 492.914 35.4833 493.222 35.67C493.53 35.8567 493.894 35.95 494.314 35.95C494.781 35.95 495.159 35.8613 495.448 35.684C495.738 35.5067 495.966 35.2593 496.134 34.942L497.324 35.502C497.156 35.838 496.928 36.132 496.638 36.384C496.358 36.6267 496.022 36.8133 495.63 36.944C495.238 37.0747 494.809 37.14 494.342 37.14ZM502.114 37.14C501.535 37.14 501.008 36.9953 500.532 36.706C500.065 36.4167 499.697 36.0013 499.426 35.46C499.155 34.9187 499.02 34.27 499.02 33.514C499.02 32.73 499.165 32.0673 499.454 31.526C499.743 30.9847 500.131 30.574 500.616 30.294C501.101 30.0047 501.633 29.86 502.212 29.86C502.809 29.86 503.313 30.0233 503.724 30.35C504.135 30.6767 504.41 31.1013 504.55 31.624L504.382 31.778V26.85H505.88V37H504.55L504.438 35.096L504.634 35.11C504.569 35.53 504.415 35.894 504.172 36.202C503.929 36.5007 503.626 36.734 503.262 36.902C502.907 37.0607 502.525 37.14 502.114 37.14ZM502.436 35.936C502.837 35.936 503.183 35.8333 503.472 35.628C503.761 35.4227 503.985 35.1333 504.144 34.76C504.303 34.3867 504.382 33.9387 504.382 33.416C504.382 32.9307 504.303 32.5153 504.144 32.17C503.985 31.8153 503.761 31.5447 503.472 31.358C503.192 31.1713 502.865 31.078 502.492 31.078C501.867 31.078 501.381 31.2927 501.036 31.722C500.691 32.1513 500.518 32.744 500.518 33.5C500.518 34.256 500.686 34.8533 501.022 35.292C501.358 35.7213 501.829 35.936 502.436 35.936ZM509.029 35.11C509.347 35.11 509.599 35.2033 509.785 35.39C509.981 35.5673 510.079 35.81 510.079 36.118C510.079 36.426 509.981 36.6733 509.785 36.86C509.599 37.0467 509.347 37.14 509.029 37.14C508.703 37.14 508.441 37.0467 508.245 36.86C508.059 36.6733 507.965 36.426 507.965 36.118C507.965 35.81 508.059 35.5673 508.245 35.39C508.441 35.2033 508.703 35.11 509.029 35.11Z" fill="#18181B"/>
<rect x="1140" y="16" width="32" height="32" fill="#D9D9D9"/>
<rect x="1180" y="16" width="32" height="32" fill="#D9D9D9"/>
<rect x="1220" y="16" width="32" height="32" fill="#D9D9D9"/>
<rect x="1260" y="16" width="32" height="32" fill="#D9D9D9"/>
<rect x="1300" y="16" width="32" height="32" fill="#D9D9D9"/>
</svg>
