<svg width="813" height="581" viewBox="0 0 813 581" fill="none" xmlns="http://www.w3.org/2000/svg">
<path d="M280.492 37.058L193.849 86.9902V186.855H194.043L280.492 236.671L366.94 186.816V86.9515L280.492 37.058ZM194.587 87.4163L280.453 37.9102L366.319 87.4163V186.428L280.492 235.935L194.587 186.428V87.4163Z" fill="#FFF046"/>
<path d="M194.237 -112.119H194.043L107.595 -62.1484V37.561L194.043 87.377H194.237L280.88 37.561V-62.3034H280.686L194.237 -112.119ZM108.332 -61.761L194.237 -111.267L279.949 -61.7223V37.2898L194.237 86.796L108.332 37.2898V-61.761Z" fill="#FFF046"/>
<path d="M366.746 -112.119H366.552L279.949 -62.1484V37.561H280.143L366.591 87.377L453.389 37.561V-62.3034L366.746 -112.119ZM280.88 -61.761L366.746 -111.267L452.652 -61.761V37.2898L366.746 86.796L280.88 37.2898V-61.761Z" fill="#FFF046"/>
<path d="M539.255 -112.119L452.652 -62.1484V37.561L539.1 87.377L625.898 37.561V-62.3034L539.255 -112.119ZM453.389 -61.761L539.255 -111.267L625.277 -61.7223V37.2898L539.372 86.796L453.389 37.2898V-61.761Z" fill="#FFF046"/>
<path d="M711.803 -112.119H711.609L625.277 -62.1484V37.561H625.471L711.919 87.377L798.407 37.561V-62.3034L711.803 -112.119ZM625.898 -61.761L711.803 -111.267L797.669 -61.761V37.2898L711.803 86.796L625.898 37.2898V-61.761Z" fill="#FFF046"/>
<path d="M0 487.493V483L52.5752 452.707V325.34L0 295.047V290.554L56.4553 323.093V454.954L0 487.493Z" fill="#FFF046"/>
<path d="M133.153 277.402L18.7681 343.256V474.962L133.153 540.815L247.5 474.962V343.256L133.153 277.402ZM22.687 345.58L133.153 281.896L243.619 345.58V472.909L133.153 536.593L22.687 472.909V345.58Z" fill="#FFF046"/>
<path d="M54.5153 326.463L0 295.047V290.554L54.5153 321.969L164.982 258.286V130.957L54.5153 67.2726L0 98.7272V94.195L54.5153 62.7791L168.9 128.71V260.571L54.5153 326.463Z" fill="#FFF046"/>
<path d="M504.532 63.9738L390.147 129.827V261.533L504.532 327.387L618.917 261.533V129.827L504.532 63.9738ZM394.065 132.112L504.532 68.4673L614.998 132.112V259.519L504.532 323.164L394.065 259.519V132.112Z" fill="#FFF046"/>
<path d="M0 98.7274V94.1952L52.5752 63.9028V-63.4263L0 -93.7188V-98.251L56.4553 -65.673V66.1495L0 98.7274Z" fill="#FFF046"/>
<path d="M166.96 -131.604L52.5753 -65.7511V65.9553L166.96 131.808L281.307 65.9553V-65.7511L166.96 -131.604ZM56.4942 -63.4269L166.96 -127.111L277.427 -63.4269V63.9409L166.96 127.586L56.4942 63.9409V-63.4269Z" fill="#FFF046"/>
<path d="M391.773 -131.604L277.427 -65.7511V65.9553L391.773 131.808L506.158 65.9553V-65.7511L391.773 -131.604ZM281.307 -63.4269L391.773 -127.111L502.278 -63.4269V63.9409L391.773 127.586L281.307 63.9409V-63.4269Z" fill="#FFF046"/>
<path d="M15.016 524.061L14.7831 524.216L0 515.694V514.648L14.7831 523.17L119.584 462.74V341.88L14.7831 281.451L0 289.973V288.927L14.5503 280.56L14.7831 280.405L120.283 341.222L120.516 341.377V463.244L15.016 524.061Z" fill="#FFF046"/>
<path d="M0 289.972V288.926L14.3175 280.675V159.815L0 151.564V150.519L15.016 159.157L15.2488 159.312V281.218L0 289.972Z" fill="#FFF046"/>
<path d="M120.089 98.379H119.856L14.3175 159.196V281.218H14.5503L120.089 342.036L225.627 281.218V159.312H225.394L120.089 98.379ZM15.3263 159.855L120.089 99.4249L224.851 159.855V280.676L120.089 341.106L15.3263 280.676V159.855Z" fill="#FFF046"/>
<path d="M330.623 98.379L225.084 159.196V281.218H225.317L330.817 342.036H331.049L436.588 281.218V159.312H436.355L330.623 98.379ZM225.86 159.855L330.623 99.4249L435.385 159.855V280.676L330.623 341.106L225.86 280.676V159.855Z" fill="#FFF046"/>
<path d="M541.195 98.379H540.962L435.463 159.196V281.218H435.696L541.195 342.036H541.428L646.967 281.218V159.312H646.734L541.195 98.379ZM436.433 159.855L541.195 99.4249L645.958 159.855V280.676L541.195 341.106L436.433 280.676V159.855Z" fill="#FFF046"/>
<path d="M15.016 159.97L14.7831 160.087L0 151.564V150.519L14.7831 159.041L119.584 98.6107V-22.2105L14.7831 -82.6404L0 -74.1183V-75.2029L14.5503 -83.5701L14.7831 -83.6863L120.283 -22.869L120.516 -22.7528V99.153L15.016 159.97Z" fill="#FFF046"/>
<path d="M225.356 -83.6859H225.123L119.623 -22.8685V99.1535H119.856L225.356 159.971H225.589L331.088 99.1535V-22.7523H330.856L225.356 -83.6859ZM120.593 -22.21L225.356 -82.6399L330.118 -22.21V98.65L225.356 159.041L120.593 98.65V-22.21Z" fill="#FFF046"/>
<path d="M435.928 -83.6859H435.696L330.39 -22.7523V99.1535H330.623L436.122 159.971H436.355L541.855 99.1535V-22.7523H541.622L435.928 -83.6859ZM331.166 -22.21L435.928 -82.6399L540.691 -22.21V98.65L435.928 159.041L331.166 98.65V-22.21Z" fill="#FFF046"/>
<path d="M54.3737 623.148L40.9486 615.4V609.939L54.3737 617.647L189.168 539.94V384.488L54.3737 306.781L40.9486 314.49V309.028L54.3737 301.281L193.941 381.738V542.691L54.3737 623.148Z" fill="#FFF046"/>
<path d="M0 325.03V319.568L11.0195 313.215V157.763L0 151.41V145.909L15.792 155.012V315.965L0 325.03Z" fill="#FFF046"/>
<path d="M150.625 74.5943L10.9419 155.051V315.966L150.625 396.423L290.309 315.966V155.051L150.625 74.5943ZM15.7921 157.647L150.625 80.1725L285.458 157.647V313.215L150.625 390.922L15.7921 313.215V157.647Z" fill="#FFF046"/>
<path d="M13.4251 159.157L0 151.41V145.909L13.4251 153.657L148.22 75.9498V-79.5024L13.4251 -157.209L0 -149.5V-155.001L13.4251 -162.71L152.992 -82.2528V78.6614L13.4251 159.157Z" fill="#FFF046"/>
<path d="M287.709 -162.71L148.026 -82.214V78.7001L287.709 159.157L427.392 78.7001V-82.214L287.709 -162.71ZM153.031 -79.5024L287.709 -157.209L422.542 -79.5024V75.9498L287.709 153.773L153.031 75.9498V-79.5024Z" fill="#FFF046"/>
<path d="M618.414 -150.704L510.151 -88.3488V36.3609L618.414 98.7158L726.714 36.3609V-88.3488L618.414 -150.704ZM513.825 -86.1481L618.414 -146.449L723.04 -86.1481V34.4536L618.414 94.7177L513.825 34.4536V-86.1481Z" fill="#FFF046"/>
</svg>
