<svg width="500" height="600" viewBox="0 0 500 600" fill="none" xmlns="http://www.w3.org/2000/svg">
<g clip-path="url(#clip0_346_839)">
<rect width="500" height="600" rx="48" fill="#FFC300"/>
<g opacity="0.5">
<circle cx="-1" r="24" stroke="#E29700" stroke-width="9.6"/>
<circle cx="-1" r="48" stroke="#E29700" stroke-width="9.6"/>
<circle cx="-1" r="72" stroke="#E29700" stroke-width="9.6"/>
<circle cx="-1" r="96" stroke="#E29700" stroke-width="9.6"/>
<circle cx="-1" r="120" stroke="#E29700" stroke-width="9.6"/>
</g>
<g opacity="0.5">
<path fill-rule="evenodd" clip-rule="evenodd" d="M499.541 577.911C487.144 577.911 477.193 587.827 477.193 599.939C477.193 612.051 487.144 621.967 499.541 621.967C511.937 621.967 521.889 612.051 521.889 599.939C521.889 587.827 511.937 577.911 499.541 577.911ZM467.593 599.939C467.593 582.418 481.95 568.311 499.541 568.311C517.131 568.311 531.489 582.418 531.489 599.939C531.489 617.46 517.131 631.567 499.541 631.567C481.95 631.567 467.593 617.46 467.593 599.939Z" fill="#E29700"/>
<path fill-rule="evenodd" clip-rule="evenodd" d="M499.541 551.083C472.151 551.083 450.044 573.01 450.044 599.939C450.044 626.868 472.151 648.795 499.541 648.795C526.931 648.795 549.037 626.868 549.037 599.939C549.037 573.01 526.931 551.083 499.541 551.083ZM440.444 599.939C440.444 567.601 466.957 541.483 499.541 541.483C532.125 541.483 558.637 567.601 558.637 599.939C558.637 632.277 532.125 658.395 499.541 658.395C466.957 658.395 440.444 632.277 440.444 599.939Z" fill="#E29700"/>
<path fill-rule="evenodd" clip-rule="evenodd" d="M499.541 524.256C457.157 524.256 422.896 558.194 422.896 599.939C422.896 641.684 457.157 675.622 499.541 675.622C541.924 675.622 576.185 641.684 576.185 599.939C576.185 558.194 541.924 524.256 499.541 524.256ZM413.296 599.939C413.296 552.785 451.963 514.656 499.541 514.656C547.118 514.656 585.785 552.785 585.785 599.939C585.785 647.093 547.118 685.222 499.541 685.222C451.963 685.222 413.296 647.093 413.296 599.939Z" fill="#E29700"/>
<path fill-rule="evenodd" clip-rule="evenodd" d="M499.541 497.428C442.164 497.428 395.748 543.377 395.748 599.939C395.748 656.501 442.164 702.45 499.541 702.45C556.918 702.45 603.333 656.501 603.333 599.939C603.333 543.377 556.918 497.428 499.541 497.428ZM386.148 599.939C386.148 537.968 436.97 487.828 499.541 487.828C562.112 487.828 612.933 537.968 612.933 599.939C612.933 661.91 562.112 712.05 499.541 712.05C436.97 712.05 386.148 661.91 386.148 599.939Z" fill="#E29700"/>
<path fill-rule="evenodd" clip-rule="evenodd" d="M499.541 470.6C427.17 470.6 368.6 528.561 368.6 599.939C368.6 671.317 427.17 729.278 499.541 729.278C571.911 729.278 630.481 671.317 630.481 599.939C630.481 528.561 571.911 470.6 499.541 470.6ZM359 599.939C359 523.152 421.976 461 499.541 461C577.105 461 640.081 523.152 640.081 599.939C640.081 676.726 577.105 738.878 499.541 738.878C421.976 738.878 359 676.726 359 599.939Z" fill="#E29700"/>
</g>
</g>
<defs>
<clipPath id="clip0_346_839">
<rect width="500" height="600" rx="48" fill="white"/>
</clipPath>
</defs>
</svg>
