<svg width="320" height="240" viewBox="0 0 320 240" fill="none" xmlns="http://www.w3.org/2000/svg">
<rect width="320" height="240" fill="#FFFCC5"/>
<path d="M115 101.318V101.25C115 94.5829 116.975 88.0652 120.675 82.5191C124.375 76.973 129.635 72.647 135.79 70.0869C141.946 67.5268 148.723 66.8473 155.264 68.1342C161.806 69.421 167.82 72.6165 172.548 77.3175C176.267 75.4816 180.422 74.7097 184.553 75.0871C188.684 75.4644 192.63 76.9764 195.955 79.4559C199.281 81.9355 201.856 85.286 203.397 89.1374C204.937 92.9888 205.383 97.1911 204.685 101.28C205.711 101.375 206.707 101.681 207.61 102.178C208.513 102.675 209.303 103.353 209.933 104.17C210.562 104.986 211.016 105.923 211.267 106.923C211.517 107.923 211.56 108.963 211.39 109.98C208 130.373 199.615 143.28 186.25 148.71V153.75C186.25 156.734 185.065 159.595 182.955 161.705C180.845 163.815 177.984 165 175 165H145C142.017 165 139.155 163.815 137.045 161.705C134.935 159.595 133.75 156.734 133.75 153.75V148.71C120.385 143.28 112 130.373 108.61 109.98C108.447 108.99 108.483 107.978 108.718 107.003C108.952 106.027 109.38 105.109 109.976 104.302C110.572 103.495 111.323 102.816 112.186 102.304C113.049 101.793 114.006 101.46 115 101.325V101.318ZM122.5 101.25H130C130 96.2772 131.976 91.5081 135.492 87.9918C139.008 84.4754 143.777 82.5 148.75 82.5C153.723 82.5 158.492 84.4754 162.008 87.9918C165.525 91.5081 167.5 96.2772 167.5 101.25H175C175 94.2881 172.235 87.6113 167.312 82.6885C162.389 77.7656 155.712 75 148.75 75C141.788 75 135.111 77.7656 130.189 82.6885C125.266 87.6113 122.5 94.2881 122.5 101.25ZM137.5 101.25H160C160 98.2663 158.815 95.4048 156.705 93.2951C154.595 91.1853 151.734 90 148.75 90C145.767 90 142.905 91.1853 140.795 93.2951C138.685 95.4048 137.5 98.2663 137.5 101.25ZM188.995 101.25H197.028C197.594 99.0335 197.647 96.7171 197.182 94.4771C196.717 92.2372 195.748 90.1329 194.346 88.3245C192.945 86.5161 191.15 85.0515 189.097 84.0421C187.044 83.0327 184.788 82.5053 182.5 82.5C180.7 82.5 178.99 82.815 177.4 83.3925C178.728 85.5225 179.823 87.8175 180.663 90.225C182.091 89.8707 183.592 89.9437 184.98 90.4348C186.367 90.926 187.58 91.8137 188.467 92.9879C189.355 94.162 189.878 95.5709 189.971 97.0397C190.065 98.5084 189.726 99.9724 188.995 101.25ZM178.75 150H141.25V153.75C141.25 154.745 141.645 155.698 142.349 156.402C143.052 157.105 144.006 157.5 145 157.5H175C175.995 157.5 176.949 157.105 177.652 156.402C178.355 155.698 178.75 154.745 178.75 153.75V150ZM138.61 142.5H181.39C193.285 138.675 200.815 127.86 203.995 108.75H116.005C119.185 127.86 126.715 138.675 138.61 142.5Z" fill="#E29700"/>
</svg>
