<svg width="32" height="32" viewBox="0 0 32 32" fill="none" xmlns="http://www.w3.org/2000/svg">
<path d="M16.7078 0.027C18.4528 0 20.1878 0.016 21.9208 0C22.0258 2.041 22.7598 4.12 24.2538 5.563C25.7448 7.042 27.8538 7.719 29.9058 7.948V13.317C27.9828 13.254 26.0508 12.854 24.3058 12.026C23.5458 11.682 22.8378 11.239 22.1448 10.786C22.1358 14.682 22.1608 18.573 22.1198 22.453C22.0158 24.317 21.4008 26.172 20.3168 27.708C18.5728 30.265 15.5458 31.932 12.4368 31.984C10.5298 32.093 8.62478 31.573 6.99978 30.615C4.30678 29.027 2.41178 26.12 2.13578 23C2.10102 22.3392 2.09568 21.6772 2.11978 21.016C2.35978 18.479 3.61478 16.052 5.56278 14.401C7.77078 12.478 10.8638 11.562 13.7598 12.104C13.7868 14.079 13.7078 16.052 13.7078 18.027C12.3848 17.599 10.8388 17.719 9.68278 18.522C8.83702 19.0792 8.19788 19.8989 7.86378 20.855C7.58778 21.531 7.66678 22.282 7.68278 23C7.99978 25.188 10.1038 27.027 12.3498 26.828C13.8388 26.812 15.2658 25.948 16.0418 24.683C16.2928 24.24 16.5738 23.787 16.5888 23.266C16.7198 20.881 16.6678 18.506 16.6838 16.121C16.6948 10.746 16.6678 5.386 16.7088 0.028L16.7078 0.027Z" fill="#18181B"/>
</svg>
