<svg width="32" height="32" viewBox="0 0 32 32" fill="none" xmlns="http://www.w3.org/2000/svg">
<path d="M2.6665 2.66663H4.40806C4.73608 2.66663 4.90009 2.66663 5.03208 2.72695C5.14839 2.7801 5.24697 2.86559 5.31604 2.97322C5.39442 3.09535 5.41761 3.25772 5.464 3.58244L6.09508 7.99996M6.09508 7.99996L7.4976 18.3085C7.67558 19.6167 7.76457 20.2707 8.0773 20.7631C8.35288 21.1969 8.74795 21.5419 9.21498 21.7565C9.74499 22 10.4051 22 11.7253 22H23.1358C24.3926 22 25.0209 22 25.5344 21.7738C25.9872 21.5745 26.3756 21.2531 26.6562 20.8456C26.9744 20.3834 27.092 19.7662 27.3271 18.5316L29.092 9.26621C29.1747 8.8317 29.2161 8.61445 29.1562 8.44463C29.1035 8.29565 28.9997 8.17021 28.8632 8.09065C28.7076 7.99996 28.4865 7.99996 28.0442 7.99996H6.09508ZM13.3332 28C13.3332 28.7363 12.7362 29.3333 11.9998 29.3333C11.2635 29.3333 10.6665 28.7363 10.6665 28C10.6665 27.2636 11.2635 26.6666 11.9998 26.6666C12.7362 26.6666 13.3332 27.2636 13.3332 28ZM23.9998 28C23.9998 28.7363 23.4029 29.3333 22.6665 29.3333C21.9301 29.3333 21.3332 28.7363 21.3332 28C21.3332 27.2636 21.9301 26.6666 22.6665 26.6666C23.4029 26.6666 23.9998 27.2636 23.9998 28Z" stroke="#18181B" stroke-width="2.66667" stroke-linecap="round" stroke-linejoin="round"/>
</svg>
