<svg width="20" height="20" viewBox="0 0 20 20" fill="none" xmlns="http://www.w3.org/2000/svg">
<path d="M9.58332 4.16675H9.94532C12.4847 4.16675 13.7544 4.16675 14.2364 4.62282C14.653 5.01705 14.8376 5.59782 14.7251 6.16026C14.595 6.81093 13.5584 7.54413 11.4852 9.01052L8.09809 11.4063C6.02491 12.8727 4.98831 13.6059 4.85819 14.2566C4.7457 14.819 4.93034 15.3998 5.34696 15.794C5.82894 16.2501 7.09862 16.2501 9.63799 16.2501H10.4167M6.66666 4.16675C6.66666 5.54746 5.54737 6.66675 4.16666 6.66675C2.78594 6.66675 1.66666 5.54746 1.66666 4.16675C1.66666 2.78604 2.78594 1.66675 4.16666 1.66675C5.54737 1.66675 6.66666 2.78604 6.66666 4.16675ZM18.3333 15.8334C18.3333 17.2141 17.214 18.3334 15.8333 18.3334C14.4526 18.3334 13.3333 17.2141 13.3333 15.8334C13.3333 14.4527 14.4526 13.3334 15.8333 13.3334C17.214 13.3334 18.3333 14.4527 18.3333 15.8334Z" stroke="#FFFFEA" stroke-width="2" stroke-linecap="round" stroke-linejoin="round"/>
</svg>
